{"title":"Shohei Imamura - 1960 - Nianchan AKA My Second Brother","uid":11773092,"size":1571629589,"categoryP":"video","categoryS":"movies","magnet":"?xt=urn:btih:86d962f916d28673c7ab5548ed054b4704c4a3a5&amp;dn=Shohei+Imamura+-+1960+-+Nianchan+AKA+My+Second+Brother&amp;tr=udp%3A%2F%2Ftracker.openbittorrent.com%3A80&amp;tr=udp%3A%2F%2Fopen.demonii.com%3A1337&amp;tr=udp%3A%2F%2Ftracker.coppersurfer.tk%3A6969&amp;tr=udp%3A%2F%2Fexodus.desync.com%3A6969","seeders":2,"leechers":0,"uploader":"rpessoa","files":1,"time":1427151977,"description":"Being a faithful 'company man', Yoshikawa moves steadily ahead within the Toho corporation. But Kaji, his old friend, makes his way through the dark side of the social world, working for a power broker who is plotting to take over Toho. Yoshikawa is given an order to investigate the company's information leakage that is seriously devaluing its stock price. In the course of the investigation, he happens to reunite with Kaji, and notices that his beloved Akiko, the only daughter of Toho's president, as well as a major share holder of the company, is in love with Kaji. For Yoshikawa, who is counting on a marriage with her that would secure his career and wealth, Kaji turns out to be an obstacle on his future path. Written by Nikkatsu\n &lt;a href=&quot;\nhttp://www.imdb.com/title/tt0053111/&quot; rel=&quot;nofollow&quot; target=&quot;_NEW&quot;&gt;\nhttp://www.imdb.com/title/tt0053111/&lt;/a&gt;\n\nSubs: English\n\nGeneral\nUnique ID                                : 216350433956882856445745390123279810185 (0xA2C393F2D1A7B862AD5ED0D1DF017E89)\nComplete name                            : Nianchan.AKA.My.Second.Brother.1960.DVDRip.x264.mkv\nFormat                                   : Matroska\nFormat version                           : Version 4 / Version 2\nFile size                                : 1.46 GiB\nDuration                                 : 1h 46mn\nOverall bit rate                         : 1 969 Kbps\nEncoded date                             : UTC 2014-11-17 17:19:20\nWriting application                      : mkvmerge v6.3.0 ('You can't stop me!') built on Jun 28 2013 20:09:41\nWriting library                          : libebml v1.3.0 + libmatroska v1.4.0\n\nVideo\nID                                       : 1\nFormat                                   : AVC\nFormat/Info                              : Advanced Video Codec\nFormat profile                           : &lt;a class=&quot;__cf_email__&quot; href=&quot;/cdn-cgi/l/email-protection&quot; data-cfemail=&quot;ca82a3ada28a86f9e4fb&quot;&gt;[email&amp;#160;protected]&lt;/a&gt;&lt;script cf-hash='f9e31' type=&quot;text/javascript&quot;&gt;\n/* &lt;![CDATA[ */!function(){try{var t=&quot;currentScript&quot;in document?document.currentScript:function(){for(var t=document.getElementsByTagName(&quot;script&quot;),e=t.length;e--;)if(t[e].getAttribute(&quot;cf-hash&quot;))return t[e]}();if(t&amp;&amp;t.previousSibling){var e,r,n,i,c=t.previousSibling,a=c.getAttribute(&quot;data-cfemail&quot;);if(a){for(e=&quot;&quot;,r=parseInt(a.substr(0,2),16),n=2;a.length-n;n+=2)i=parseInt(a.substr(n,2),16)^r,e+=String.fromCharCode(i);e=document.createTextNode(e),c.parentNode.replaceChild(e,c)}}}catch(u){}}();/* ]]&gt; */&lt;/script&gt;\nFormat settings, CABAC                   : Yes\nFormat settings, ReFrames                : 11 frames\nCodec ID                                 : V_MPEG4/ISO/AVC\nDuration                                 : 1h 46mn\nBit rate                                 : 1 775 Kbps\nWidth                                    : 672 pixels\nHeight                                   : 336 pixels\nDisplay aspect ratio                     : 2.35:1\nOriginal display aspect ratio            : 2.40:1\nFrame rate mode                          : Constant\nFrame rate                               : 23.976 fps\nColor space                              : YUV\nChroma subsampling                       : 4:2:0\nBit depth                                : 8 bits\nScan type                                : Progressive\nBits/(Pixel*Frame)                       : 0.328\nStream size                              : 1.29 GiB (88%)\nWriting library                          : x264 core 142 r2479 dd79a61\nEncoding settings                        : cabac=1 / ref=11 / deblock=1:-3:-3 / analyse=0x3:0x113 / me=umh / subme=11 / psy=1 / psy_rd=1.00:0.00 / mixed_ref=1 / me_range=32 / chroma_me=1 / trellis=2 / 8x8dct=1 / cqm=0 / deadzone=21,11 / fast_pskip=0 / chroma_qp_offset=-2 / threads=12 / lookahead_threads=2 / sliced_threads=0 / nr=0 / decimate=1 / interlaced=0 / bluray_compat=0 / constrained_intra=0 / bframes=9 / b_pyramid=2 / b_adapt=2 / b_bias=0 / direct=3 / weightb=1 / open_gop=0 / weightp=2 / keyint=250 / keyint_min=23 / scenecut=40 / intra_refresh=0 / rc_lookahead=60 / rc=2pass / mbtree=1 / bitrate=1775 / ratetol=1.0 / qcomp=0.60 / qpmin=0 / qpmax=69 / qpstep=4 / cplxblur=20.0 / qblur=0.5 / ip_ratio=1.40 / aq=2:1.00\nLanguage                                 : English\nDefault                                  : Yes\nForced                                   : No\n\nAudio\nID                                       : 2\nFormat                                   : AC-3\nFormat/Info                              : Audio Coding 3\nMode extension                           : CM (complete main)\nFormat settings, Endianness              : Big\nCodec ID                                 : A_AC3\nDuration                                 : 1h 46mn\nBit rate mode                            : Constant\nBit rate                                 : 192 Kbps\nChannel(s)                               : 2 channels\nChannel positions                        : Front: L R\nSampling rate                            : 48.0 KHz\nBit depth                                : 16 bits\nCompression mode                         : Lossy\nStream size                              : 146 MiB (10%)\nLanguage                                 : Japanese\nDefault                                  : Yes\nForced                                   : No\n\nText\nID                                       : 3\nFormat                                   : UTF-8\nCodec ID                                 : S_TEXT/UTF8\nCodec ID/Info                            : UTF-8 Plain Text\nLanguage                                 : English\nDefault                                  : Yes\nForced                                   : No\n\nMenu\n00:00:00.000                             : en:Chapter 1\n00:01:04.968                             : en:Chapter 2\n00:02:44.302                             : en:Chapter 3\n00:09:19.136                             : en:Chapter 4\n00:11:31.937                             : en:Chapter 5\n00:15:57.738                             : en:Chapter 6\n00:17:50.905                             : en:Chapter 7\n00:19:06.539                             : en:Chapter 8\n00:22:15.340                             : en:Chapter 9\n00:23:05.507                             : en:Chapter 10\n00:24:46.841                             : en:Chapter 11\n00:26:12.341                             : en:Chapter 12\n00:27:30.175                             : en:Chapter 13\n00:29:44.475                             : en:Chapter 14\n00:35:33.276                             : en:Chapter 15\n00:38:37.743                             : en:Chapter 16\n00:40:32.210                             : en:Chapter 17\n00:42:10.877                             : en:Chapter 18\n00:43:23.711                             : en:Chapter 19\n00:45:33.045                             : en:Chapter 20\n00:48:04.345                             : en:Chapter 21\n00:49:44.645                             : en:Chapter 22\n00:50:44.778                             : en:Chapter 23\n00:52:09.412                             : en:Chapter 24\n00:54:32.079                             : en:Chapter 25\n01:00:14.246                             : en:Chapter 26\n01:01:19.546                             : en:Chapter 27\n01:02:06.380                             : en:Chapter 28\n01:03:50.047                             : en:Chapter 29\n01:04:28.748                             : en:Chapter 30\n01:05:52.881                             : en:Chapter 31\n01:06:33.715                             : en:Chapter 32\n01:09:51.049                             : en:Chapter 33\n01:12:52.349                             : en:Chapter 34\n01:14:01.983                             : en:Chapter 35\n01:15:41.317                             : en:Chapter 36\n01:19:34.817                             : en:Chapter 37\n01:21:15.484                             : en:Chapter 38\n01:22:39.984                             : en:Chapter 39\n01:24:50.651                             : en:Chapter 40\n01:28:45.485                             : en:Chapter 41\n01:30:08.286                             : en:Chapter 42\n01:33:17.120                             : en:Chapter 43\n01:34:05.420                             : en:Chapter 44\n01:36:38.754                             : en:Chapter 45\n01:38:10.921                             : en:Chapter 46\n01:41:03.355                             : en:Chapter 47\n\nMy rip","torrent":{"xt":"urn:btih:86d962f916d28673c7ab5548ed054b4704c4a3a5","amp;dn":"Shohei+Imamura+-+1960+-+Nianchan+AKA+My+Second+Brother","amp;tr":["udp%3A%2F%2Ftracker.openbittorrent.com%3A80","udp%3A%2F%2Fopen.demonii.com%3A1337","udp%3A%2F%2Ftracker.coppersurfer.tk%3A6969","udp%3A%2F%2Fexodus.desync.com%3A6969"],"infoHash":"86d962f916d28673c7ab5548ed054b4704c4a3a5","infoHashBuffer":{"type":"Buffer","data":[134,217,98,249,22,210,134,115,199,171,85,72,237,5,75,71,4,196,163,165]},"announce":[],"urlList":[]}}